<svg width="39" height="39" viewBox="0 0 39 39" fill="none" xmlns="http://www.w3.org/2000/svg">
<circle cx="19.5" cy="19.5" r="19.5" fill="#E6E6E6"/>
<path d="M19 11C16.5558 11 16.2493 11.0104 15.2893 11.0542C14.3314 11.0979 13.6771 11.25 13.1046 11.4725C12.5128 11.7025 12.0109 12.0102 11.5106 12.5105C11.0102 13.0109 10.7025 13.5128 10.4725 14.1047C10.25 14.6771 10.0979 15.3314 10.0541 16.2893C10.0103 17.2493 10 17.5558 10 20C10 22.4442 10.0103 22.7507 10.0541 23.7107C10.0979 24.6686 10.25 25.3229 10.4725 25.8953C10.7025 26.4872 11.0102 26.9891 11.5106 27.4895C12.0109 27.9898 12.5128 28.2975 13.1046 28.5275C13.6771 28.75 14.3314 28.9021 15.2893 28.9458C16.2493 28.9896 16.5558 29 19 29C21.4442 29 21.7507 28.9896 22.7107 28.9458C23.6686 28.9021 24.3229 28.75 24.8953 28.5275C25.4872 28.2975 25.9891 27.9898 26.4895 27.4895C26.9898 26.9891 27.2975 26.4872 27.5275 25.8953C27.75 25.3229 27.9021 24.6686 27.9458 23.7107C27.9896 22.7507 28 22.4442 28 20C28 17.5558 27.9896 17.2493 27.9458 16.2893C27.9021 15.3314 27.75 14.6771 27.5275 14.1047C27.2975 13.5128 26.9898 13.0109 26.4895 12.5105C25.9891 12.0102 25.4872 11.7025 24.8953 11.4725C24.3229 11.25 23.6686 11.0979 22.7107 11.0542C21.7507 11.0104 21.4442 11 19 11ZM19 12.6216C21.4031 12.6216 21.6877 12.6308 22.6368 12.6741C23.5143 12.7141 23.9908 12.8607 24.3079 12.984C24.7281 13.1473 25.0279 13.3423 25.3428 13.6572C25.6577 13.9721 25.8527 14.272 26.016 14.692C26.1393 15.0092 26.2859 15.4857 26.3259 16.3632C26.3692 17.3123 26.3784 17.5969 26.3784 20C26.3784 22.4031 26.3692 22.6877 26.3259 23.6368C26.2859 24.5143 26.1393 24.9908 26.016 25.3079C25.8527 25.7281 25.6577 26.0279 25.3428 26.3428C25.0279 26.6577 24.728 26.8527 24.308 27.016C23.9908 27.1393 23.5143 27.2859 22.6368 27.3259C21.6879 27.3692 21.4033 27.3784 19 27.3784C16.5967 27.3784 16.3121 27.3692 15.3632 27.3259C14.4857 27.2859 14.0092 27.1393 13.6921 27.016C13.2719 26.8527 12.9721 26.6577 12.6572 26.3428C12.3423 26.0279 12.1473 25.728 11.984 25.308C11.8607 24.9908 11.7141 24.5143 11.6741 23.6368C11.6308 22.6877 11.6216 22.4031 11.6216 20C11.6216 17.5969 11.6308 17.3123 11.6741 16.3632C11.7141 15.4857 11.8607 15.0092 11.984 14.6921C12.1473 14.2719 12.3423 13.9721 12.6572 13.6572C12.9721 13.3423 13.272 13.1473 13.692 12.984C14.0092 12.8607 14.4857 12.7141 15.3632 12.6741C16.3123 12.6308 16.5969 12.6216 19 12.6216" fill="white"/>
<path d="M18.9999 23C17.343 23 15.9999 21.6568 15.9999 20C15.9999 18.3431 17.343 17 18.9999 17C20.6568 17 21.9999 18.3431 21.9999 20C21.9999 21.6568 20.6568 23 18.9999 23ZM18.9999 15.3783C16.4474 15.3783 14.3783 17.4475 14.3783 20C14.3783 22.5524 16.4474 24.6216 18.9999 24.6216C21.5524 24.6216 23.6215 22.5524 23.6215 20C23.6215 17.4475 21.5524 15.3783 18.9999 15.3783ZM24.8842 15.1957C24.8842 15.7922 24.4006 16.2757 23.8041 16.2757C23.2077 16.2757 22.7241 15.7922 22.7241 15.1957C22.7241 14.5993 23.2077 14.1157 23.8041 14.1157C24.4006 14.1157 24.8842 14.5993 24.8842 15.1957Z" fill="white"/>
</svg>
