<svg width="39" height="39" viewBox="0 0 39 39" fill="none" xmlns="http://www.w3.org/2000/svg">
<circle cx="19.5" cy="19.5" r="19.5" fill="#E6E6E6"/>
<path d="M23.3832 19.1098L15.7441 11.4502L25.4632 17.0297L23.3832 19.1098ZM13.7509 11C13.3007 11.2354 13 11.6646 13 12.2217V27.496C13 28.0531 13.3013 28.4823 13.7509 28.7177L22.6328 19.8569L13.7509 11ZM28.4676 18.8085L26.429 17.6284L24.1551 19.8608L26.429 22.0931L28.5091 20.913C29.1321 20.4184 29.1321 19.3036 28.4676 18.8085ZM15.7446 28.2718L25.4638 22.6923L23.3837 20.6123L15.7446 28.2718Z" fill="url(#paint0_linear_1151_1960)"/>
<defs>
<linearGradient id="paint0_linear_1151_1960" x1="20.9857" y1="11" x2="20.9857" y2="28.7177" gradientUnits="userSpaceOnUse">
<stop offset="0.338542" stop-color="white"/>
<stop offset="1" stop-color="#F3F3F3" stop-opacity="0.52"/>
</linearGradient>
</defs>
</svg>
