<svg width="48" height="48" viewBox="0 0 48 48" fill="none" xmlns="http://www.w3.org/2000/svg">
<circle cx="23.5429" cy="23.5429" r="23.5429" fill="#D4D4D4"/>
<path d="M22.9392 13.2808C19.9882 13.2808 19.6181 13.2933 18.4592 13.3461C17.3026 13.3989 16.5127 13.5826 15.8216 13.8512C15.107 14.1289 14.5011 14.5004 13.897 15.1045C13.2929 15.7085 12.9213 16.3146 12.6437 17.0291C12.3751 17.7202 12.1914 18.5101 12.1386 19.6667C12.0857 20.8257 12.0732 21.1957 12.0732 24.1467C12.0732 27.0977 12.0857 27.4677 12.1386 28.6267C12.1914 29.7833 12.3751 30.5731 12.6437 31.2643C12.9214 31.9788 13.2929 32.5848 13.897 33.1889C14.5011 33.793 15.107 34.1645 15.8216 34.4422C16.5127 34.7108 17.3026 34.8945 18.4592 34.9473C19.6181 35.0001 19.9882 35.0126 22.9392 35.0126C25.8902 35.0126 26.2602 35.0001 27.4192 34.9473C28.5757 34.8945 29.3656 34.7108 30.0568 34.4422C30.7713 34.1645 31.3773 33.793 31.9814 33.1889C32.5854 32.5848 32.957 31.9788 33.2347 31.2643C33.5033 30.5731 33.687 29.7833 33.7397 28.6267C33.7926 27.4677 33.8051 27.0977 33.8051 24.1467C33.8051 21.1957 33.7926 20.8257 33.7397 19.6667C33.687 18.5101 33.5033 17.7202 33.2347 17.0291C32.957 16.3146 32.5854 15.7085 31.9814 15.1045C31.3773 14.5004 30.7713 14.1289 30.0568 13.8512C29.3656 13.5826 28.5757 13.3989 27.4192 13.3461C26.2602 13.2933 25.8902 13.2808 22.9392 13.2808ZM22.9392 15.2386C25.8405 15.2386 26.1842 15.2497 27.3299 15.3019C28.3894 15.3502 28.9647 15.5273 29.3476 15.6761C29.8548 15.8732 30.2168 16.1086 30.597 16.4889C30.9772 16.8691 31.2127 17.2311 31.4098 17.7383C31.5586 18.1212 31.7356 18.6965 31.7839 19.7559C31.8362 20.9017 31.8473 21.2454 31.8473 24.1467C31.8473 27.048 31.8362 27.3917 31.7839 28.5375C31.7356 29.5969 31.5586 30.1722 31.4098 30.5551C31.2127 31.0623 30.9772 31.4243 30.597 31.8045C30.2168 32.1848 29.8548 32.4202 29.3476 32.6173C28.9647 32.7661 28.3894 32.9431 27.3299 32.9914C26.1844 33.0437 25.8407 33.0548 22.9392 33.0548C20.0376 33.0548 19.6941 33.0437 18.5484 32.9914C17.489 32.9431 16.9136 32.7661 16.5308 32.6173C16.0235 32.4202 15.6616 32.1848 15.2814 31.8045C14.9012 31.4243 14.6657 31.0623 14.4685 30.5551C14.3197 30.1722 14.1428 29.5969 14.0944 28.5375C14.0421 27.3917 14.0311 27.048 14.0311 24.1467C14.0311 21.2454 14.0421 20.9017 14.0944 19.7559C14.1428 18.6965 14.3197 18.1212 14.4685 17.7383C14.6657 17.2311 14.9012 16.8691 15.2814 16.4889C15.6616 16.1086 16.0236 15.8732 16.5307 15.6761C16.9136 15.5273 17.489 15.3502 18.5484 15.3019C19.6942 15.2497 20.0379 15.2386 22.9392 15.2386" fill="white"/>
<path d="M22.9382 27.7687C20.9378 27.7687 19.3162 26.1471 19.3162 24.1467C19.3162 22.1463 20.9378 20.5247 22.9382 20.5247C24.9386 20.5247 26.5602 22.1463 26.5602 24.1467C26.5602 26.1471 24.9386 27.7687 22.9382 27.7687ZM22.9382 18.5669C19.8565 18.5669 17.3584 21.065 17.3584 24.1467C17.3584 27.2283 19.8565 29.7265 22.9382 29.7265C26.0199 29.7265 28.518 27.2283 28.518 24.1467C28.518 21.065 26.0199 18.5669 22.9382 18.5669ZM30.0424 18.3464C30.0424 19.0666 29.4586 19.6503 28.7385 19.6503C28.0184 19.6503 27.4346 19.0666 27.4346 18.3464C27.4346 17.6263 28.0184 17.0425 28.7385 17.0425C29.4586 17.0425 30.0424 17.6263 30.0424 18.3464Z" fill="white"/>
</svg>
