<svg width="30" height="30" viewBox="0 0 30 30" fill="none" xmlns="http://www.w3.org/2000/svg">
<circle cx="15" cy="15" r="15" fill="#5B7FFF"/>
<path d="M9.00003 18.1251C9 18.0847 9 18.0431 9 18.0001V12.0001C9 11.3001 9 10.9498 9.14532 10.6824C9.27316 10.4472 9.47698 10.2561 9.72786 10.1362C10.0131 10 10.3867 10 11.1335 10H18.8668C19.6135 10 19.9867 10 20.2719 10.1362C20.5228 10.2561 20.727 10.4472 20.8548 10.6824C21 10.9495 21 11.2994 21 11.9981V18.0019C21 18.3051 21 18.5424 20.9881 18.7359M9.00003 18.1251C9.00055 18.7428 9.00891 19.0661 9.14532 19.3171C9.27316 19.5523 9.47698 19.744 9.72786 19.8639C10.0128 20 10.386 20 11.1313 20H18.8691C19.6143 20 19.987 20 20.2719 19.8639C20.5228 19.744 20.727 19.5523 20.8548 19.3171C20.937 19.1659 20.9727 18.9883 20.9881 18.7359M9.00003 18.1251L12.1787 14.6484L12.1796 14.6475C12.4615 14.3391 12.6027 14.1847 12.7702 14.129C12.9173 14.0801 13.0779 14.0813 13.2243 14.1321C13.3911 14.19 13.53 14.3462 13.8079 14.6588L15.5887 16.6622C15.846 16.9516 15.9753 17.0971 16.1324 17.1556C16.271 17.2071 16.4238 17.2129 16.5667 17.1733C16.7295 17.1283 16.8727 16.994 17.1592 16.7255L17.4906 16.4148C17.7822 16.1414 17.9281 16.0047 18.0931 15.9601C18.2381 15.9209 18.3931 15.9293 18.5326 15.9833C18.6913 16.0448 18.8201 16.1952 19.0778 16.4972L20.9881 18.7359M20.9881 18.7359L21 18.7498M17 13.75C16.6318 13.75 16.3333 13.4702 16.3333 13.125C16.3333 12.7798 16.6318 12.5 17 12.5C17.3682 12.5 17.6667 12.7798 17.6667 13.125C17.6667 13.4702 17.3682 13.75 17 13.75Z" stroke="white" stroke-width="1.2" stroke-linecap="round" stroke-linejoin="round"/>
</svg>
