<svg width="248" height="135" viewBox="0 0 248 135" fill="none" xmlns="http://www.w3.org/2000/svg">
<g filter="url(#filter0_d_2748_1409)">
<mask id="path-1-inside-1_2748_1409" fill="white">
<path fill-rule="evenodd" clip-rule="evenodd" d="M22 20C20.8954 20 20 20.8954 20 22V100C20 101.105 20.8954 102 22 102H39.3397L46.2679 114C47.0377 115.333 48.9622 115.333 49.732 114L56.6603 102H226C227.105 102 228 101.105 228 100V22C228 20.8954 227.105 20 226 20H22Z"/>
</mask>
<path fill-rule="evenodd" clip-rule="evenodd" d="M22 20C20.8954 20 20 20.8954 20 22V100C20 101.105 20.8954 102 22 102H39.3397L46.2679 114C47.0377 115.333 48.9622 115.333 49.732 114L56.6603 102H226C227.105 102 228 101.105 228 100V22C228 20.8954 227.105 20 226 20H22Z" fill="white"/>
<path d="M39.3397 102L40.2058 101.5L39.9171 101H39.3397V102ZM46.2679 114L47.134 113.5L46.2679 114ZM49.732 114L48.866 113.5L49.732 114ZM56.6603 102V101H56.0829L55.7942 101.5L56.6603 102ZM21 22C21 21.4477 21.4477 21 22 21V19C20.3431 19 19 20.3431 19 22H21ZM21 100V22H19V100H21ZM22 101C21.4477 101 21 100.552 21 100H19C19 101.657 20.3431 103 22 103V101ZM39.3397 101H22V103H39.3397V101ZM47.134 113.5L40.2058 101.5L38.4737 102.5L45.4019 114.5L47.134 113.5ZM48.866 113.5C48.4811 114.167 47.5189 114.167 47.134 113.5L45.4019 114.5C46.5566 116.5 49.4434 116.5 50.5981 114.5L48.866 113.5ZM55.7942 101.5L48.866 113.5L50.5981 114.5L57.5263 102.5L55.7942 101.5ZM226 101H56.6603V103H226V101ZM227 100C227 100.552 226.552 101 226 101V103C227.657 103 229 101.657 229 100H227ZM227 22V100H229V22H227ZM226 21C226.552 21 227 21.4477 227 22H229C229 20.3431 227.657 19 226 19V21ZM22 21H226V19H22V21Z" fill="#E6E6E6" mask="url(#path-1-inside-1_2748_1409)"/>
</g>
<defs>
<filter id="filter0_d_2748_1409" x="0" y="0" width="248" height="135" filterUnits="userSpaceOnUse" color-interpolation-filters="sRGB">
<feFlood flood-opacity="0" result="BackgroundImageFix"/>
<feColorMatrix in="SourceAlpha" type="matrix" values="0 0 0 0 0 0 0 0 0 0 0 0 0 0 0 0 0 0 127 0" result="hardAlpha"/>
<feOffset/>
<feGaussianBlur stdDeviation="10"/>
<feComposite in2="hardAlpha" operator="out"/>
<feColorMatrix type="matrix" values="0 0 0 0 0 0 0 0 0 0 0 0 0 0 0 0 0 0 0.1 0"/>
<feBlend mode="normal" in2="BackgroundImageFix" result="effect1_dropShadow_2748_1409"/>
<feBlend mode="normal" in="SourceGraphic" in2="effect1_dropShadow_2748_1409" result="shape"/>
</filter>
</defs>
</svg>
