<svg width="36" height="36" viewBox="0 0 36 36" fill="none" xmlns="http://www.w3.org/2000/svg">
<path d="M11.3529 10H8M11.6212 10L14.0353 18.8853C14.2368 19.586 14.6553 20.2023 15.2289 20.6432C15.8026 21.0841 16.5009 21.326 17.2206 21.3333H26.9888V10H11.6212ZM19.1765 25.3C19.1765 26.2389 18.4259 27 17.5 27C16.5741 27 15.8235 26.2389 15.8235 25.3C15.8235 24.3611 16.5741 23.6 17.5 23.6C18.4259 23.6 19.1765 24.3611 19.1765 25.3ZM27 25.3C27 26.2389 26.2494 27 25.3235 27C24.3976 27 23.6471 26.2389 23.6471 25.3C23.6471 24.3611 24.3976 23.6 25.3235 23.6C26.2494 23.6 27 24.3611 27 25.3Z" stroke="#262626" stroke-linecap="round" stroke-linejoin="round"/>
</svg>
