<svg width="84" height="24" viewBox="0 0 84 24" fill="none" xmlns="http://www.w3.org/2000/svg">
<path d="M23.3751 6.4687H21.1057V18.2105H19.2191V6.4687H16.9497V4.62046H19.2191V0.135742H21.1057V4.62046H23.3751V6.4687Z" fill="#262626"/>
<path d="M11.5634 0.842529C11.8915 0.842529 12.174 0.96031 12.411 1.19587C12.648 1.43143 12.7665 1.71229 12.7665 2.03845C12.7665 2.38274 12.648 2.67266 12.411 2.90822C12.174 3.14378 11.8915 3.26156 11.5634 3.26156C11.2171 3.26156 10.9254 3.14378 10.6885 2.90822C10.4515 2.67266 10.333 2.38274 10.333 2.03845C10.333 1.71229 10.4515 1.43143 10.6885 1.19587C10.9254 0.96031 11.2171 0.842529 11.5634 0.842529ZM12.493 4.62056V18.2106H10.6064V4.62056H12.493Z" fill="#262626"/>
<path d="M6.42539 1.84825C5.62335 1.84825 4.92157 2.12005 4.32005 2.66365C3.73675 3.18913 3.39953 3.84145 3.30839 4.62062H6.42539V6.46886H3.28105V18.2107H1.42179V6.46886H0V4.62062H1.42179C1.47647 3.76897 1.73166 2.98981 2.18737 2.28313C2.66129 1.57645 3.26282 1.02378 3.99194 0.625142C4.73929 0.208381 5.55044 0 6.42539 0V1.84825Z" fill="#262626"/>
<path d="M40.1159 4.97391V18.2106H38.2292V15.71C36.9715 17.4677 35.2945 18.3465 33.1983 18.3465C31.9406 18.3465 30.7831 18.0475 29.7259 17.4496C28.6686 16.8335 27.8301 16 27.2104 14.949C26.6089 13.898 26.3081 12.7565 26.3081 11.5243C26.3081 10.274 26.6089 9.1234 27.2104 8.07244C27.8301 7.02147 28.6686 6.19701 29.7259 5.59905C30.7831 4.98297 31.9406 4.67493 33.1983 4.67493C34.4925 4.67493 35.5497 4.94673 36.37 5.49033C37.2085 6.01581 37.8282 6.58659 38.2292 7.20267V4.97391H40.1159ZM33.1983 16.4983C34.1097 16.4983 34.9482 16.2808 35.7138 15.8459C36.4794 15.3929 37.0809 14.7859 37.5184 14.0249C37.9741 13.2638 38.2019 12.4303 38.2019 11.5243C38.2019 10.6183 37.9741 9.78478 37.5184 9.02374C37.0809 8.24458 36.4794 7.63756 35.7138 7.20267C34.9482 6.74967 34.1097 6.52317 33.1983 6.52317C32.2869 6.52317 31.4393 6.74967 30.6555 7.20267C29.8899 7.63756 29.2793 8.24458 28.8236 9.02374C28.3861 9.78478 28.1674 10.6183 28.1674 11.5243C28.1674 12.4303 28.3861 13.2638 28.8236 14.0249C29.2793 14.7859 29.8899 15.3929 30.6555 15.8459C31.4393 16.2808 32.2869 16.4983 33.1983 16.4983Z" fill="#262626"/>
<path d="M83.9996 6.4687H81.7302V18.2105H79.8436V6.4687H77.5742V4.62046H79.8436V0.135742H81.7302V4.62046H83.9996V6.4687Z" fill="#262626"/>
<path d="M74.2672 4.97391V18.2106H72.3806V15.71C71.1229 17.4677 69.4459 18.3465 67.3497 18.3465C66.0919 18.3465 64.9345 18.0475 63.8772 17.4496C62.82 16.8335 61.9815 16 61.3618 14.949C60.7602 13.898 60.4595 12.7565 60.4595 11.5243C60.4595 10.274 60.7602 9.1234 61.3618 8.07244C61.9815 7.02147 62.82 6.19701 63.8772 5.59905C64.9345 4.98297 66.0919 4.67493 67.3497 4.67493C68.6439 4.67493 69.7011 4.94673 70.5214 5.49033C71.3598 6.01581 71.9796 6.58659 72.3806 7.20267V4.97391H74.2672ZM67.3497 16.4983C68.2611 16.4983 69.0996 16.2808 69.8651 15.8459C70.6307 15.3929 71.2323 14.7859 71.6697 14.0249C72.1254 13.2638 72.3533 12.4303 72.3533 11.5243C72.3533 10.6183 72.1254 9.78478 71.6697 9.02374C71.2323 8.24458 70.6307 7.63756 69.8651 7.20267C69.0996 6.74967 68.2611 6.52317 67.3497 6.52317C66.4383 6.52317 65.5907 6.74967 64.8069 7.20267C64.0413 7.63756 63.4306 8.24458 62.9749 9.02374C62.5375 9.78478 62.3187 10.6183 62.3187 11.5243C62.3187 12.4303 62.5375 13.2638 62.9749 14.0249C63.4306 14.7859 64.0413 15.3929 64.8069 15.8459C65.5907 16.2808 66.4383 16.4983 67.3497 16.4983Z" fill="#262626"/>
<path d="M43.6162 24V4.97399H45.4755V7.22993C46.1135 6.34205 46.8608 5.68067 47.7175 5.24579C48.5742 4.79278 49.513 4.56628 50.5338 4.56628C51.7733 4.56628 52.9216 4.87433 53.9789 5.49041C55.0361 6.10649 55.8746 6.94001 56.4943 7.99098C57.1141 9.04194 57.424 10.1835 57.424 11.4157C57.424 12.6478 57.1141 13.7894 56.4943 14.8404C55.8746 15.8913 55.0361 16.7248 53.9789 17.3409C52.9216 17.957 51.7733 18.265 50.5338 18.265C49.2396 18.265 48.1732 18.0023 47.3347 17.4768C46.4962 16.9332 45.8765 16.3534 45.4755 15.7373V24H43.6162ZM50.5338 6.44171C49.6224 6.44171 48.7839 6.66821 48.0183 7.12121C47.2527 7.55609 46.6421 8.15406 46.1864 8.9151C45.7307 9.67614 45.5028 10.5097 45.5028 11.4157C45.5028 12.3217 45.7307 13.1552 46.1864 13.9162C46.6421 14.6773 47.2527 15.2843 48.0183 15.7373C48.7839 16.1903 49.6224 16.4168 50.5338 16.4168C51.4452 16.4168 52.2836 16.1903 53.0492 15.7373C53.8148 15.2843 54.4163 14.6773 54.8538 13.9162C55.3095 13.1552 55.5374 12.3217 55.5374 11.4157C55.5374 10.5097 55.3095 9.67614 54.8538 8.9151C54.4163 8.15406 53.8148 7.55609 53.0492 7.12121C52.2836 6.66821 51.4452 6.44171 50.5338 6.44171Z" fill="#262626"/>
</svg>
