<svg width="70" height="21" viewBox="0 0 70 21" fill="none" xmlns="http://www.w3.org/2000/svg">
<path d="M19.479 5.42281H17.5878V15.266H16.0157V5.42281H14.1245V3.87343H16.0157V0.113892H17.5878V3.87343H19.479V5.42281Z" fill="#262626"/>
<path d="M9.63653 0.706299C9.90995 0.706299 10.1454 0.805034 10.3429 1.0025C10.5403 1.19998 10.6391 1.43542 10.6391 1.70884C10.6391 1.99745 10.5403 2.24049 10.3429 2.43796C10.1454 2.63543 9.90995 2.73417 9.63653 2.73417C9.34792 2.73417 9.10488 2.63543 8.90741 2.43796C8.70994 2.24049 8.61121 1.99745 8.61121 1.70884C8.61121 1.43542 8.70994 1.19998 8.90741 1.0025C9.10488 0.805034 9.34792 0.706299 9.63653 0.706299ZM10.4112 3.87342V15.266H8.83906V3.87342H10.4112Z" fill="#262626"/>
<path d="M5.35449 1.54938C4.68613 1.54938 4.10131 1.77723 3.60004 2.23294C3.11396 2.67345 2.83294 3.22029 2.75699 3.87346H5.35449V5.42284H2.73421V15.266H1.18482V5.42284H0V3.87346H1.18482C1.23039 3.15953 1.44305 2.50636 1.8228 1.91394C2.21775 1.32153 2.71902 0.858237 3.32662 0.524056C3.94941 0.174685 4.62537 0 5.35449 0V1.54938Z" fill="#262626"/>
<path d="M33.43 4.16958V15.2659H31.8579V13.1697C30.8098 14.6431 29.4123 15.3798 27.6654 15.3798C26.6173 15.3798 25.6527 15.1292 24.7717 14.6279C23.8907 14.1115 23.192 13.4127 22.6755 12.5317C22.1742 11.6507 21.9236 10.6937 21.9236 9.66078C21.9236 8.61267 22.1742 7.6481 22.6755 6.76708C23.192 5.88606 23.8907 5.19491 24.7717 4.69364C25.6527 4.17718 26.6173 3.91895 27.6654 3.91895C28.7439 3.91895 29.6249 4.1468 30.3085 4.6025C31.0072 5.04301 31.5237 5.52149 31.8579 6.03796V4.16958H33.43ZM27.6654 13.8304C28.4249 13.8304 29.1237 13.6482 29.7616 13.2836C30.3996 12.9039 30.9009 12.395 31.2655 11.757C31.6452 11.119 31.8351 10.4203 31.8351 9.66078C31.8351 8.90128 31.6452 8.20254 31.2655 7.56455C30.9009 6.91138 30.3996 6.40252 29.7616 6.03796C29.1237 5.6582 28.4249 5.46833 27.6654 5.46833C26.9059 5.46833 26.1996 5.6582 25.5464 6.03796C24.9084 6.40252 24.3996 6.91138 24.0198 7.56455C23.6552 8.20254 23.473 8.90128 23.473 9.66078C23.473 10.4203 23.6552 11.119 24.0198 11.757C24.3996 12.395 24.9084 12.9039 25.5464 13.2836C26.1996 13.6482 26.9059 13.8304 27.6654 13.8304Z" fill="#262626"/>
<path d="M70 5.42281H68.1088V15.266H66.5367V5.42281H64.6455V3.87343H66.5367V0.113892H68.1088V3.87343H70V5.42281Z" fill="#262626"/>
<path d="M61.889 4.16958V15.2659H60.3169V13.1697C59.2687 14.6431 57.8713 15.3798 56.1244 15.3798C55.0763 15.3798 54.1117 15.1292 53.2307 14.6279C52.3497 14.1115 51.6509 13.4127 51.1345 12.5317C50.6332 11.6507 50.3826 10.6937 50.3826 9.66078C50.3826 8.61267 50.6332 7.6481 51.1345 6.76708C51.6509 5.88606 52.3497 5.19491 53.2307 4.69364C54.1117 4.17718 55.0763 3.91895 56.1244 3.91895C57.2029 3.91895 58.0839 4.1468 58.7675 4.6025C59.4662 5.04301 59.9827 5.52149 60.3169 6.03796V4.16958H61.889ZM56.1244 13.8304C56.8839 13.8304 57.5826 13.6482 58.2206 13.2836C58.8586 12.9039 59.3599 12.395 59.7244 11.757C60.1042 11.119 60.2941 10.4203 60.2941 9.66078C60.2941 8.90128 60.1042 8.20254 59.7244 7.56455C59.3599 6.91138 58.8586 6.40252 58.2206 6.03796C57.5826 5.6582 56.8839 5.46833 56.1244 5.46833C55.3649 5.46833 54.6586 5.6582 54.0054 6.03796C53.3674 6.40252 52.8585 6.91138 52.4788 7.56455C52.1142 8.20254 51.932 8.90128 51.932 9.66078C51.932 10.4203 52.1142 11.119 52.4788 11.757C52.8585 12.395 53.3674 12.9039 54.0054 13.2836C54.6586 13.6482 55.3649 13.8304 56.1244 13.8304Z" fill="#262626"/>
<path d="M36.347 20.1192V4.16966H37.8964V6.06082C38.4281 5.31651 39.0509 4.76207 39.7648 4.39751C40.4787 4.01776 41.261 3.82788 42.1117 3.82788C43.1446 3.82788 44.1016 4.08611 44.9826 4.60257C45.8636 5.11903 46.5623 5.81778 47.0788 6.6988C47.5953 7.57982 47.8535 8.53679 47.8535 9.56972C47.8535 10.6026 47.5953 11.5596 47.0788 12.4406C46.5623 13.3217 45.8636 14.0204 44.9826 14.5369C44.1016 15.0533 43.1446 15.3116 42.1117 15.3116C41.0332 15.3116 40.1446 15.0913 39.4458 14.6508C38.7471 14.1951 38.2306 13.709 37.8964 13.1925V20.1192H36.347ZM42.1117 5.40005C41.3522 5.40005 40.6534 5.58993 40.0154 5.96968C39.3775 6.33424 38.8686 6.83551 38.4888 7.47349C38.1091 8.11147 37.9192 8.81021 37.9192 9.56972C37.9192 10.3292 38.1091 11.028 38.4888 11.6659C38.8686 12.3039 39.3775 12.8128 40.0154 13.1925C40.6534 13.5723 41.3522 13.7622 42.1117 13.7622C42.8712 13.7622 43.5699 13.5723 44.2079 13.1925C44.8459 12.8128 45.3471 12.3039 45.7117 11.6659C46.0915 11.028 46.2813 10.3292 46.2813 9.56972C46.2813 8.81021 46.0915 8.11147 45.7117 7.47349C45.3471 6.83551 44.8459 6.33424 44.2079 5.96968C43.5699 5.58993 42.8712 5.40005 42.1117 5.40005Z" fill="#262626"/>
</svg>
