<svg width="24" height="24" viewBox="0 0 24 24" fill="none" xmlns="http://www.w3.org/2000/svg">
<path d="M3.00042 8.78042V6.05041C2.99366 5.64802 3.06793 5.24837 3.21881 4.87527C3.36969 4.50217 3.5941 4.16325 3.87867 3.87867C4.16325 3.5941 4.50219 3.36969 4.87529 3.21881C5.24839 3.06793 5.64803 2.99366 6.05043 3.00042H17.9504C18.7585 3.00306 19.5328 3.32523 20.1042 3.89665C20.6756 4.46806 20.9978 5.24231 21.0004 6.05041V17.9504C21.0072 18.3528 20.9329 18.7524 20.782 19.1255C20.6312 19.4986 20.4067 19.8376 20.1222 20.1222C19.8376 20.4067 19.4986 20.6312 19.1255 20.782C18.7524 20.9329 18.3528 21.0072 17.9504 21.0004H6.09042C5.68802 21.0072 5.28838 20.9329 4.91528 20.782C4.54218 20.6312 4.20326 20.4067 3.91868 20.1222C3.63411 19.8376 3.40968 19.4986 3.2588 19.1255C3.10792 18.7524 3.03365 18.3528 3.04042 17.9504V15.2204M12.4004 7.69042L17.4904 12.0604L12.5404 16.3104M17.4904 12.0804H6.00042" stroke="#262626" stroke-linecap="round" stroke-linejoin="round"/>
</svg>
