<svg width="82" height="24" viewBox="0 0 82 24" fill="none" xmlns="http://www.w3.org/2000/svg">
<path d="M22.8183 6.35238H20.6029V17.8829H18.7613V6.35238H16.5459V4.53739H18.7613V0.133362H20.6029V4.53739H22.8183V6.35238Z" fill="#BFBFBF"/>
<path d="M11.2884 0.827393C11.6087 0.827393 11.8845 0.943054 12.1159 1.17438C12.3472 1.4057 12.4628 1.68151 12.4628 2.0018C12.4628 2.33989 12.3472 2.62459 12.1159 2.85591C11.8845 3.08724 11.6087 3.2029 11.2884 3.2029C10.9504 3.2029 10.6656 3.08724 10.4343 2.85591C10.203 2.62459 10.0873 2.33989 10.0873 2.0018C10.0873 1.68151 10.203 1.4057 10.4343 1.17438C10.6656 0.943054 10.9504 0.827393 11.2884 0.827393ZM12.1959 4.53745V17.883H10.3543V4.53745H12.1959Z" fill="#BFBFBF"/>
<path d="M6.2724 1.81499C5.48946 1.81499 4.80439 2.0819 4.21719 2.61572C3.64778 3.13175 3.31859 3.77234 3.22962 4.53748H6.2724V6.35247H3.20293V17.883H1.38794V6.35247H0V4.53748H1.38794C1.44132 3.70116 1.69043 2.93602 2.13529 2.24205C2.59793 1.54808 3.18513 1.00536 3.8969 0.613895C4.62645 0.204632 5.41829 0 6.2724 0V1.81499Z" fill="#BFBFBF"/>
<path d="M39.1608 4.88436V17.8829H37.3191V15.4273C36.0913 17.1534 34.4543 18.0164 32.408 18.0164C31.1802 18.0164 30.0503 17.7228 29.0182 17.1356C27.9862 16.5306 27.1676 15.712 26.5626 14.68C25.9754 13.6479 25.6818 12.5269 25.6818 11.3169C25.6818 10.0891 25.9754 8.9592 26.5626 7.92714C27.1676 6.89509 27.9862 6.08546 29.0182 5.49826C30.0503 4.89326 31.1802 4.59076 32.408 4.59076C33.6714 4.59076 34.7034 4.85767 35.5041 5.39149C36.3227 5.90752 36.9277 6.46803 37.3191 7.07303V4.88436H39.1608ZM32.408 16.2014C33.2977 16.2014 34.1162 15.9878 34.8636 15.5608C35.6109 15.1159 36.1981 14.5198 36.6252 13.7725C37.07 13.0251 37.2924 12.2066 37.2924 11.3169C37.2924 10.4272 37.07 9.60868 36.6252 8.86133C36.1981 8.09619 35.6109 7.50009 34.8636 7.07303C34.1162 6.62818 33.2977 6.40575 32.408 6.40575C31.5183 6.40575 30.6908 6.62818 29.9257 7.07303C29.1784 7.50009 28.5823 8.09619 28.1374 8.86133C27.7103 9.60868 27.4968 10.4272 27.4968 11.3169C27.4968 12.2066 27.7103 13.0251 28.1374 13.7725C28.5823 14.5198 29.1784 15.1159 29.9257 15.5608C30.6908 15.9878 31.5183 16.2014 32.408 16.2014Z" fill="#BFBFBF"/>
<path d="M82 6.35238H79.7846V17.8829H77.943V6.35238H75.7276V4.53739H77.943V0.133362H79.7846V4.53739H82V6.35238Z" fill="#BFBFBF"/>
<path d="M72.4986 4.88436V17.8829H70.6569V15.4273C69.4291 17.1534 67.7921 18.0164 65.7457 18.0164C64.518 18.0164 63.388 17.7228 62.356 17.1356C61.3239 16.5306 60.5054 15.712 59.9004 14.68C59.3132 13.6479 59.0196 12.5269 59.0196 11.3169C59.0196 10.0891 59.3132 8.9592 59.9004 7.92714C60.5054 6.89509 61.3239 6.08546 62.356 5.49826C63.388 4.89326 64.518 4.59076 65.7457 4.59076C67.0091 4.59076 68.0412 4.85767 68.8419 5.39149C69.6604 5.90752 70.2654 6.46803 70.6569 7.07303V4.88436H72.4986ZM65.7457 16.2014C66.6354 16.2014 67.454 15.9878 68.2013 15.5608C68.9487 15.1159 69.5359 14.5198 69.9629 13.7725C70.4078 13.0251 70.6302 12.2066 70.6302 11.3169C70.6302 10.4272 70.4078 9.60868 69.9629 8.86133C69.5359 8.09619 68.9487 7.50009 68.2013 7.07303C67.454 6.62818 66.6354 6.40575 65.7457 6.40575C64.856 6.40575 64.0286 6.62818 63.2635 7.07303C62.5161 7.50009 61.92 8.09619 61.4752 8.86133C61.0481 9.60868 60.8346 10.4272 60.8346 11.3169C60.8346 12.2066 61.0481 13.0251 61.4752 13.7725C61.92 14.5198 62.5161 15.1159 63.2635 15.5608C64.0286 15.9878 64.856 16.2014 65.7457 16.2014Z" fill="#BFBFBF"/>
<path d="M42.578 23.5682V4.88444H44.393V7.09979C45.0158 6.22789 45.7453 5.5784 46.5817 5.15135C47.418 4.7065 48.3344 4.48407 49.3308 4.48407C50.5408 4.48407 51.6619 4.78657 52.6939 5.39157C53.726 5.99656 54.5445 6.81509 55.1495 7.84714C55.7545 8.8792 56.057 10.0002 56.057 11.2102C56.057 12.4202 55.7545 13.5412 55.1495 14.5733C54.5445 15.6053 53.726 16.4239 52.6939 17.0289C51.6619 17.6339 50.5408 17.9364 49.3308 17.9364C48.0675 17.9364 47.0265 17.6784 46.208 17.1623C45.3895 16.6285 44.7845 16.0591 44.393 15.4541V23.5682H42.578ZM49.3308 6.32575C48.4411 6.32575 47.6226 6.54818 46.8753 6.99303C46.1279 7.42009 45.5318 8.00729 45.087 8.75464C44.6421 9.50199 44.4197 10.3205 44.4197 11.2102C44.4197 12.0999 44.6421 12.9184 45.087 13.6658C45.5318 14.4131 46.1279 15.0092 46.8753 15.4541C47.6226 15.8989 48.4411 16.1214 49.3308 16.1214C50.2205 16.1214 51.0391 15.8989 51.7864 15.4541C52.5338 15.0092 53.121 14.4131 53.548 13.6658C53.9929 12.9184 54.2153 12.0999 54.2153 11.2102C54.2153 10.3205 53.9929 9.50199 53.548 8.75464C53.121 8.00729 52.5338 7.42009 51.7864 6.99303C51.0391 6.54818 50.2205 6.32575 49.3308 6.32575Z" fill="#BFBFBF"/>
</svg>
