<svg width="24" height="24" viewBox="0 0 24 24" fill="none" xmlns="http://www.w3.org/2000/svg">
<path d="M16 21H7C6.46957 21 5.96086 20.7893 5.58578 20.4142C5.21071 20.0391 5 19.5304 5 19V5C5 4.46957 5.21071 3.96087 5.58578 3.5858C5.96086 3.21073 6.46957 3 7 3H16C16.5304 3 17.0391 3.21073 17.4142 3.5858C17.7893 3.96087 18 4.46957 18 5V11.23M7.94 6.60001H14.94M7.94 9.85001H14.94M7.94 13.1H12.35M16.44 17.97C16.44 18.2429 16.5209 18.5098 16.6726 18.7367C16.8242 18.9636 17.0397 19.1405 17.2919 19.245C17.5441 19.3494 17.8215 19.3767 18.0892 19.3235C18.3569 19.2702 18.6028 19.1388 18.7958 18.9458C18.9888 18.7528 19.1202 18.5069 19.1735 18.2392C19.2267 17.9715 19.1994 17.6941 19.0949 17.4419C18.9905 17.1897 18.8136 16.9742 18.5867 16.8226C18.3598 16.6709 18.0929 16.59 17.82 16.59C17.5471 16.59 17.2803 16.5091 17.0533 16.3574C16.8264 16.2058 16.6495 15.9903 16.545 15.7381C16.4406 15.4859 16.4133 15.2085 16.4665 14.9408C16.5198 14.6731 16.6512 14.4272 16.8442 14.2342C17.0372 14.0412 17.2831 13.9098 17.5508 13.8565C17.8185 13.8033 18.096 13.8306 18.3481 13.9351C18.6003 14.0395 18.8158 14.2164 18.9674 14.4433C19.1191 14.6703 19.2 14.9371 19.2 15.21M17.86 13.1V13.83M17.86 19.35V20.08" stroke="#262626" stroke-linecap="round" stroke-linejoin="round"/>
</svg>
