<svg width="24" height="24" viewBox="0 0 24 24" fill="none" xmlns="http://www.w3.org/2000/svg">
<path d="M4 14.9134H20M12 3C13.6671 3 15.2659 3.62758 16.4447 4.74467C17.6235 5.86177 18.2857 7.37687 18.2857 8.95668V14.9134H5.71429V8.95668C5.71429 7.37687 6.37653 5.86177 7.55533 4.74467C8.73413 3.62758 10.3329 3 12 3ZM14.2857 18.8339C14.2857 20.0302 13.2624 21 12 21C10.7376 21 9.71429 20.0302 9.71429 18.8339C9.71429 17.6377 10.7376 16.6679 12 16.6679C13.2624 16.6679 14.2857 17.6377 14.2857 18.8339Z" stroke="#262626" stroke-linecap="round" stroke-linejoin="round"/>
</svg>
