<svg width="36" height="36" viewBox="0 0 36 36" fill="none" xmlns="http://www.w3.org/2000/svg">
<path d="M22.3944 28H12.2535C11.6558 28 11.0827 27.7659 10.66 27.3491C10.2374 26.9324 10 26.3671 10 25.7778V10.2222C10 9.63285 10.2374 9.06764 10.66 8.65089C11.0827 8.23414 11.6558 8 12.2535 8H22.3944C22.992 8 23.5652 8.23414 23.9878 8.65089C24.4105 9.06764 24.6479 9.63285 24.6479 10.2222V17.1445M13.3127 12H21.2M13.3127 15.6111H21.2M13.3127 19.2222H18.2817M22.8901 24.6333C22.8901 24.9366 22.9813 25.2331 23.1522 25.4852C23.323 25.7374 23.5659 25.9339 23.85 26.05C24.1341 26.166 24.4468 26.1964 24.7484 26.1372C25.05 26.078 25.3271 25.932 25.5446 25.7176C25.762 25.5031 25.9101 25.2299 25.9701 24.9325C26.0301 24.635 25.9993 24.3267 25.8816 24.0465C25.7639 23.7664 25.5647 23.5269 25.3089 23.3584C25.0532 23.1899 24.7526 23.1 24.4451 23.1C24.1375 23.1 23.8369 23.0101 23.5812 22.8416C23.3255 22.6731 23.1262 22.4336 23.0085 22.1534C22.8908 21.8733 22.86 21.565 22.92 21.2676C22.98 20.9701 23.1281 20.6969 23.3456 20.4824C23.563 20.268 23.8401 20.122 24.1417 20.0628C24.4433 20.0037 24.756 20.034 25.0401 20.1501C25.3242 20.2661 25.5671 20.4627 25.7379 20.7148C25.9088 20.967 26 21.2634 26 21.5667M24.4901 19.2222V20.0333M24.4901 26.1667V26.9778" stroke="#262626" stroke-linecap="round" stroke-linejoin="round"/>
</svg>
