<svg width="24" height="24" viewBox="0 0 24 24" fill="none" xmlns="http://www.w3.org/2000/svg">
<path d="M11.9748 17.212C9.91078 17.212 8.63878 15.964 8.56678 14.284H9.81478C9.85078 15.316 10.6188 16.12 11.9748 16.12C13.3188 16.12 14.1228 15.352 14.1228 14.392C14.1228 13.312 13.2588 12.676 11.8068 12.676H10.7508V11.632H11.8068C13.0308 11.632 13.8588 10.936 13.8588 9.94C13.8588 9.004 13.1148 8.236 11.8428 8.236C10.5468 8.236 9.83878 9.148 9.83878 10.168H8.57878C8.57878 8.476 9.87478 7.156 11.8428 7.156C13.8228 7.156 15.1068 8.392 15.1068 9.904C15.1068 11.08 14.2788 11.896 13.3908 12.112C14.3628 12.292 15.3588 13.048 15.3588 14.38C15.3588 15.988 13.9908 17.212 11.9748 17.212Z" fill="#262626"/>
<circle cx="12" cy="12" r="11.5" stroke="#262626"/>
</svg>
