<svg width="61" height="16" viewBox="0 0 61 16" fill="none" xmlns="http://www.w3.org/2000/svg">
<path d="M0.24411 14.18L8.79411 2.768H0.60411V1.094H11.3681V2.39L2.81811 13.82H11.6921V15.494H0.24411V14.18ZM20.0922 15.818C15.7182 15.818 12.4782 12.632 12.4782 8.276C12.4782 3.92 15.7002 0.733999 20.0742 0.733999C24.4482 0.733999 27.6882 3.92 27.6882 8.276C27.6882 12.632 24.4662 15.818 20.0922 15.818ZM20.0922 14.09C23.3682 14.09 25.7982 11.66 25.7982 8.276C25.7982 4.874 23.3682 2.462 20.0742 2.462C16.7802 2.462 14.3682 4.874 14.3682 8.276C14.3682 11.66 16.7982 14.09 20.0922 14.09ZM36.8605 15.818C32.4865 15.818 29.2465 12.632 29.2465 8.276C29.2465 3.92 32.4685 0.733999 36.8425 0.733999C41.2165 0.733999 44.4565 3.92 44.4565 8.276C44.4565 12.632 41.2345 15.818 36.8605 15.818ZM36.8605 14.09C40.1365 14.09 42.5665 11.66 42.5665 8.276C42.5665 4.874 40.1365 2.462 36.8425 2.462C33.5485 2.462 31.1365 4.874 31.1365 8.276C31.1365 11.66 33.5665 14.09 36.8605 14.09ZM53.5749 15.818C49.2189 15.818 46.0149 12.632 46.0149 8.276C46.0149 3.92 49.2189 0.733999 53.5749 0.733999C57.3009 0.733999 59.8749 2.894 60.6309 5.918H58.7049C58.0929 3.884 56.2389 2.48 53.6109 2.48C50.2989 2.48 47.9049 4.892 47.9049 8.276C47.9049 11.642 50.3169 14.072 53.6109 14.072C56.3109 14.072 58.3269 12.488 58.8489 10.436H60.7749C60.1449 13.442 57.3909 15.818 53.5749 15.818Z" fill="#262626"/>
</svg>
